<svg width="13" height="11" viewBox="0 0 13 11" fill="none" xmlns="http://www.w3.org/2000/svg">
<path d="M11.3589 5.05785C11.3091 4.23767 10.9766 3.44863 10.4036 2.79074C10.229 2.95208 10.0424 3.1035 9.84489 3.24406C9.23815 3.67646 8.56013 4.02939 7.83289 4.29138C7.93431 4.47375 8.02723 4.65039 8.10921 4.81713V4.81869C8.13235 4.86528 8.15462 4.91218 8.17602 4.95937C9.09548 4.8708 10.0647 4.9031 11.0042 5.012C11.1293 5.02659 11.2472 5.04222 11.3589 5.05785ZM5.65934 1.17599C6.25118 1.89149 6.79695 2.63424 7.29421 3.4009C8.03694 3.14975 8.65093 2.83295 9.14528 2.48019C9.31687 2.35886 9.4784 2.22741 9.62869 2.0868C8.75477 1.45617 7.64906 1.11103 6.50714 1.11242C6.22294 1.11226 5.93927 1.13335 5.65934 1.17547V1.17599ZM1.80234 4.23719C2.21605 4.22823 2.62928 4.20686 3.04125 4.1731C4.03701 4.09669 5.02427 3.95348 5.99397 3.74479C5.48718 2.98937 4.94002 2.25443 4.35424 1.54229C3.72855 1.80824 3.17683 2.18653 2.73653 2.65151C2.29622 3.11649 1.97762 3.65728 1.80234 4.23719ZM2.73152 7.90438C2.96715 7.60894 3.27688 7.27651 3.68803 6.9149C4.57105 6.13852 5.61319 5.5341 6.8193 5.20062L6.85695 5.19124C6.75674 5.00158 6.66261 4.83224 6.56787 4.67279C5.45286 4.95156 4.27833 5.12559 3.10805 5.21573C2.53718 5.26002 2.02522 5.2793 1.64869 5.28243C1.64762 6.23731 2.03026 7.16332 2.73213 7.90438H2.73152ZM8.3321 9.14449C8.0979 8.13117 7.76639 7.13621 7.34097 6.16979C6.12515 6.54859 5.15649 7.10248 4.40768 7.76317C4.10549 8.02494 3.83731 8.31409 3.60786 8.62552C4.44522 9.16158 5.46238 9.45059 6.50714 9.44931C7.13261 9.45008 7.75234 9.34692 8.3321 9.14553V9.14449ZM9.46958 8.58436C10.4177 7.95897 11.0637 7.05543 11.2836 6.04682C11.0771 6.00253 10.8154 5.95824 10.5275 5.92385C9.88749 5.84477 9.23806 5.83899 8.59627 5.90665C8.95766 6.78142 9.24943 7.67621 9.46958 8.58488V8.58436ZM6.50714 10.4914C3.15299 10.4914 0.434082 8.15865 0.434082 5.28087C0.434082 2.40308 3.15299 0.0703125 6.50714 0.0703125C9.86129 0.0703125 12.5802 2.40308 12.5802 5.28087C12.5802 8.15865 9.86129 10.4914 6.50714 10.4914Z" fill="#2B2B2B"/>
</svg>
