<svg width="13" height="11" viewBox="0 0 13 11" fill="none" xmlns="http://www.w3.org/2000/svg">
<path d="M6.09601 0.0703125C7.74606 0.0703125 7.95193 0.075523 8.59932 0.101576C9.2461 0.127629 9.6864 0.214645 10.0739 0.343867C10.4747 0.476215 10.8123 0.655458 11.15 0.944643C11.4588 1.20512 11.6978 1.5202 11.8502 1.86795C12.0002 2.19987 12.1023 2.57815 12.1326 3.13308C12.1612 3.68852 12.1691 3.86516 12.1691 5.28087C12.1691 6.69657 12.163 6.87321 12.1326 7.42866C12.1023 7.98358 12.0002 8.36134 11.8502 8.69378C11.6982 9.04173 11.4592 9.35688 11.15 9.61709C10.8463 9.88195 10.4791 10.087 10.0739 10.2179C9.68701 10.3466 9.2461 10.4341 8.59932 10.4602C7.95193 10.4846 7.74606 10.4914 6.09601 10.4914C4.44596 10.4914 4.24008 10.4862 3.59269 10.4602C2.94591 10.4341 2.50562 10.3466 2.11815 10.2179C1.71267 10.0873 1.34537 9.88228 1.04201 9.61709C0.733137 9.35666 0.494177 9.04157 0.341785 8.69378C0.191173 8.36187 0.0897528 7.98358 0.0593875 7.42866C0.0308442 6.87321 0.0229492 6.69657 0.0229492 5.28087C0.0229492 3.86516 0.0290222 3.68852 0.0593875 3.13308C0.0897528 2.57763 0.191173 2.20039 0.341785 1.86795C0.493755 1.51998 0.732771 1.20482 1.04201 0.944643C1.34546 0.679547 1.71273 0.47451 2.11815 0.343867C2.50562 0.214645 2.94531 0.127629 3.59269 0.101576C4.24008 0.0770862 4.44596 0.0703125 6.09601 0.0703125ZM6.09601 2.67559C5.29067 2.67559 4.51832 2.95007 3.94886 3.43866C3.3794 3.92724 3.05948 4.5899 3.05948 5.28087C3.05948 5.97183 3.3794 6.63449 3.94886 7.12307C4.51832 7.61166 5.29067 7.88614 6.09601 7.88614C6.90135 7.88614 7.6737 7.61166 8.24316 7.12307C8.81262 6.63449 9.13254 5.97183 9.13254 5.28087C9.13254 4.5899 8.81262 3.92724 8.24316 3.43866C7.6737 2.95007 6.90135 2.67559 6.09601 2.67559ZM10.0435 2.54533C10.0435 2.37258 9.96352 2.20692 9.82115 2.08477C9.67879 1.96263 9.4857 1.89401 9.28436 1.89401C9.08303 1.89401 8.88994 1.96263 8.74758 2.08477C8.60521 2.20692 8.52523 2.37258 8.52523 2.54533C8.52523 2.71807 8.60521 2.88373 8.74758 3.00588C8.88994 3.12802 9.08303 3.19664 9.28436 3.19664C9.4857 3.19664 9.67879 3.12802 9.82115 3.00588C9.96352 2.88373 10.0435 2.71807 10.0435 2.54533ZM6.09601 3.7177C6.57921 3.7177 7.04262 3.88239 7.3843 4.17554C7.72597 4.46869 7.91793 4.86629 7.91793 5.28087C7.91793 5.69544 7.72597 6.09304 7.3843 6.38619C7.04262 6.67934 6.57921 6.84403 6.09601 6.84403C5.61281 6.84403 5.14939 6.67934 4.80772 6.38619C4.46604 6.09304 4.27409 5.69544 4.27409 5.28087C4.27409 4.86629 4.46604 4.46869 4.80772 4.17554C5.14939 3.88239 5.61281 3.7177 6.09601 3.7177Z" fill="#2B2B2B"/>
</svg>
