<svg width="13" height="10" viewBox="0 0 13 10" fill="none" xmlns="http://www.w3.org/2000/svg">
<path d="M3.22854 1.63345C3.22838 1.90984 3.10026 2.17485 2.87236 2.37018C2.64446 2.56552 2.33546 2.67518 2.01332 2.67504C1.69119 2.6749 1.38231 2.56498 1.15464 2.36945C0.926969 2.17392 0.799155 1.9088 0.799317 1.63241C0.799478 1.35603 0.9276 1.09102 1.1555 0.895679C1.3834 0.700343 1.6924 0.590682 2.01454 0.59082C2.33667 0.590959 2.64555 0.700885 2.87322 0.896416C3.10089 1.09195 3.2287 1.35707 3.22854 1.63345ZM3.26498 3.44672H0.835755V9.97034H3.26498V3.44672ZM7.10315 3.44672H4.68607V9.97034H7.07886V6.54701C7.07886 4.63994 9.97571 4.46278 9.97571 6.54701V9.97034H12.3746V5.83837C12.3746 2.62346 8.08699 2.7433 7.07886 4.3221L7.10315 3.44672Z" fill="#2B2B2B"/>
</svg>
