<svg width="13" height="10" viewBox="0 0 13 10" fill="none" xmlns="http://www.w3.org/2000/svg">
<path d="M12.8704 1.97535C12.4068 2.1513 11.9151 2.26686 11.4117 2.3182C11.9423 2.04591 12.3395 1.61739 12.5291 1.11248C12.0311 1.36675 11.4852 1.54495 10.9161 1.64135C10.5339 1.29046 10.0272 1.05775 9.47494 0.979393C8.92266 0.901037 8.35567 0.981428 7.86213 1.20807C7.36858 1.43471 6.97614 1.7949 6.74581 2.23264C6.51547 2.67038 6.46015 3.16115 6.58844 3.62865C5.57856 3.58523 4.59061 3.36006 3.68873 2.96778C2.78686 2.5755 1.99122 2.02487 1.35347 1.35164C1.12772 1.68431 1.0091 2.06248 1.00973 2.44742C1.00973 3.20295 1.45792 3.87042 2.13932 4.26122C1.73607 4.25032 1.3417 4.15689 0.989083 3.9887V4.0158C0.989205 4.51898 1.19215 5.00665 1.5635 5.39611C1.93486 5.78556 2.45177 6.05285 3.02659 6.15265C2.65226 6.23968 2.25975 6.25251 1.87879 6.19016C2.04086 6.62328 2.35674 7.00207 2.78221 7.27349C3.20768 7.54492 3.72143 7.69538 4.25153 7.70383C3.72468 8.05884 3.12144 8.32127 2.4763 8.47612C1.83116 8.63097 1.15678 8.67521 0.491699 8.6063C1.65268 9.2469 3.00418 9.58699 4.38453 9.58588C9.05654 9.58588 11.6115 6.26519 11.6115 3.38532C11.6115 3.29153 11.6084 3.1967 11.6036 3.10395C12.1009 2.79557 12.5301 2.41356 12.871 1.97587L12.8704 1.97535Z" fill="#2B2B2B"/>
</svg>
