<svg width="13" height="9" viewBox="0 0 13 9" fill="none" xmlns="http://www.w3.org/2000/svg">
<path d="M12.6996 1.4139C12.9772 2.34242 12.9772 4.28075 12.9772 4.28075C12.9772 4.28075 12.9772 6.21907 12.6996 7.14759C12.5454 7.66083 12.0941 8.06465 11.5227 8.20117C10.4848 8.44919 6.90411 8.44919 6.90411 8.44919C6.90411 8.44919 3.32526 8.44919 2.28555 8.20117C1.71165 8.06257 1.26103 7.65927 1.10859 7.14759C0.831055 6.21907 0.831055 4.28075 0.831055 4.28075C0.831055 4.28075 0.831055 2.34242 1.10859 1.4139C1.26285 0.900661 1.71408 0.496843 2.28555 0.360327C3.32526 0.112305 6.90411 0.112305 6.90411 0.112305C6.90411 0.112305 10.4848 0.112305 11.5227 0.360327C12.0966 0.498928 12.5472 0.902225 12.6996 1.4139ZM5.6895 6.10444L9.33334 4.28075L5.6895 2.45705V6.10444Z" fill="#2B2B2B"/>
</svg>
